<?xml version="1.0" encoding="utf-8"?>
<!-- Generator: Adobe Illustrator 27.5.0, SVG Export Plug-In . SVG Version: 6.00 Build 0)  -->
<svg version="1.1" xmlns="http://www.w3.org/2000/svg" xmlns:xlink="http://www.w3.org/1999/xlink" x="0px" y="0px"
	 viewBox="0 0 2200 2200" style="enable-background:new 0 0 2200 2200;" xml:space="preserve">
<g id="background">
	<rect style="fill:#FFFFFF;" width="2200" height="2200"/>
</g>
<g id="Objects">
	<g>
		<g>
			<g>
				<path style="fill:#202F4C;" d="M1893.38,923.391c-4.185-20.629-19.38-37.291-39.44-43.67
					c-31.217-9.926-62.434-19.852-93.65-29.778c-15.339-56.383-37.708-109.869-66.106-159.461
					c15.064-29.111,30.129-58.221,45.194-87.333c9.788-18.914,8.435-41.617-3.368-59.343
					c-17.347-26.052-40.266-51.891-69.096-80.721c-29.041-29.041-55.047-52.083-81.292-69.475
					c-17.547-11.628-40.073-12.665-58.767-2.991c-29.113,15.066-58.225,30.131-87.337,45.196
					c-49.592-28.398-103.078-50.767-159.461-66.107c-9.925-31.215-19.851-62.43-29.776-93.646
					c-6.453-20.296-23.463-35.392-44.344-39.58c-30.688-6.155-65.164-8.22-105.936-8.22c-41.07,0-75.752,2.096-106.608,8.356
					c-20.629,4.185-37.291,19.38-43.67,39.44c-9.926,31.217-19.852,62.434-29.778,93.65
					c-56.383,15.339-109.869,37.708-159.461,66.107c-29.111-15.064-58.221-30.129-87.333-45.194
					c-18.914-9.788-41.617-8.435-59.343,3.368c-26.052,17.347-51.891,40.265-80.721,69.095
					c-29.041,29.041-52.083,55.047-69.475,81.292c-11.628,17.547-12.665,40.073-2.991,58.767
					c15.066,29.113,30.131,58.225,45.196,87.337c-28.398,49.592-50.767,103.078-66.107,159.461
					c-31.215,9.925-62.43,19.851-93.646,29.776c-20.296,6.453-35.392,23.463-39.58,44.344c-6.155,30.688-8.22,65.164-8.22,105.936
					c0,41.07,2.096,75.752,8.356,106.608c4.185,20.629,19.38,37.291,39.44,43.67c31.217,9.926,62.434,19.852,93.65,29.778
					c15.339,56.383,37.708,109.869,66.107,159.461c-15.064,29.111-30.129,58.221-45.194,87.333
					c-9.788,18.914-8.435,41.616,3.368,59.343c17.347,26.052,40.265,51.891,69.095,80.721
					c29.041,29.041,55.047,52.083,81.292,69.475c17.547,11.628,40.073,12.665,58.767,2.991
					c29.113-15.066,58.225-30.131,87.337-45.196c49.592,28.398,103.078,50.767,159.461,66.107
					c9.925,31.215,19.851,62.43,29.776,93.646c6.453,20.296,23.463,35.392,44.344,39.58c30.688,6.155,65.164,8.22,105.936,8.22
					c41.07,0,75.752-2.096,106.609-8.356c20.629-4.185,37.291-19.38,43.67-39.44c9.926-31.217,19.852-62.434,29.778-93.65
					c56.383-15.339,109.869-37.708,159.461-66.107c29.111,15.064,58.221,30.129,87.333,45.194
					c18.914,9.788,41.617,8.436,59.343-3.368c26.052-17.347,51.891-40.265,80.721-69.095c29.041-29.041,52.083-55.047,69.475-81.292
					c11.628-17.547,12.665-40.073,2.991-58.767c-15.066-29.113-30.131-58.225-45.196-87.337
					c28.398-49.592,50.767-103.078,66.107-159.461c31.215-9.926,62.43-19.851,93.646-29.776
					c20.296-6.453,35.392-23.463,39.58-44.344c6.155-30.688,8.22-65.164,8.22-105.936
					C1901.736,988.93,1899.64,954.247,1893.38,923.391z M1100,1534.739c-278.759,0-504.74-225.981-504.74-504.74
					s225.981-504.74,504.74-504.74s504.74,225.981,504.74,504.74S1378.759,1534.739,1100,1534.739z"/>
			</g>
			<path style="fill:#0074FF;" d="M1285.222,907.626c0-14.841-12.031-26.873-26.873-26.873c-2.426,0-4.774,0.327-7.009,0.929
				v-20.894c0-88.87-48.327-146.715-151.34-146.715s-151.34,57.845-151.34,146.715v20.894c-2.235-0.602-4.583-0.929-7.009-0.929
				c-14.841,0-26.873,12.031-26.873,26.873c0,12.754,15.75,58.084,34.799,70.582c8.905,81.033,81.352,144.235,150.423,144.235
				c71.843,0,141.883-63.215,150.46-144.26C1269.491,965.651,1285.222,920.372,1285.222,907.626z"/>
			<path style="fill:#0074FF;" d="M1403.754,1368.561c-79.824,73.712-186.531,118.749-303.754,118.749
				s-223.93-45.037-303.754-118.749c2.632-81.073,35.264-142.65,67.43-166.77c67.273-50.446,153.793-72.587,153.793-72.587
				l40.075,96.664l31.382-59.422l-17.362-27.55c0.364,0.214,12.211,4.485,28.436,4.485s28.071-4.271,28.436-4.485l-17.362,27.55
				l31.382,59.422l40.075-96.664c0,0,86.519,22.142,153.793,72.587C1368.49,1225.911,1401.122,1287.487,1403.754,1368.561z"/>
		</g>
		<ellipse style="fill:#DCE2EA;" cx="1100" cy="1941.61" rx="625.575" ry="30.127"/>
	</g>
</g>
</svg>
