<svg xmlns="http://www.w3.org/2000/svg" xmlns:xlink="http://www.w3.org/1999/xlink" viewBox="0 0 2746.42 2572.87"><defs><style>.cls-1{fill:#12233d;}.cls-2{fill:url(#linear-gradient);}.cls-3{fill:#fff;stroke:#f7931e;stroke-width:10px;}.cls-19,.cls-3{stroke-miterlimit:10;}.cls-4{fill:url(#linear-gradient-2);}.cls-5{opacity:0.28;fill:url(#linear-gradient-3);}.cls-6{opacity:0.53;fill:url(#linear-gradient-4);}.cls-7{fill:#4b5559;}.cls-8{fill:#a0a0a0;}.cls-9{clip-path:url(#clip-path);}.cls-10{clip-path:url(#clip-path-2);}.cls-11{fill:url(#linear-gradient-5);}.cls-12{fill:url(#linear-gradient-6);}.cls-13{fill:url(#linear-gradient-7);}.cls-14{fill:url(#linear-gradient-8);}.cls-15{fill:url(#linear-gradient-9);}.cls-16{fill:url(#linear-gradient-10);}.cls-17{fill:url(#linear-gradient-11);}.cls-18{fill:url(#linear-gradient-12);}.cls-19{fill:none;stroke-width:6px;stroke:url(#linear-gradient-13);}.cls-20,.cls-21{opacity:0.06;}.cls-20{fill:url(#linear-gradient-14);}.cls-21{fill:url(#linear-gradient-15);}</style><linearGradient id="linear-gradient" x1="1374.55" y1="1997.5" x2="1374.55" gradientUnits="userSpaceOnUse"><stop offset="0.03" stop-color="#1447e6"/><stop offset="1" stop-color="#0084ff"/></linearGradient><linearGradient id="linear-gradient-2" x1="453.96" y1="1043.39" x2="2295.05" y2="1043.39" gradientUnits="userSpaceOnUse"><stop offset="0.01" stop-color="#1447e6"/><stop offset="1" stop-color="#3fa9f5"/></linearGradient><linearGradient id="linear-gradient-3" x1="1397.64" y1="1192.97" x2="2316.83" y2="1192.97" gradientUnits="userSpaceOnUse"><stop offset="0.01" stop-color="#0273a5"/><stop offset="1" stop-color="#3fa9f5"/></linearGradient><linearGradient id="linear-gradient-4" x1="487.2" y1="852.67" x2="1372.74" y2="852.67" gradientUnits="userSpaceOnUse"><stop offset="0.01" stop-color="#0273a5"/><stop offset="0.07" stop-color="#1281ba"/><stop offset="0.15" stop-color="#2390d0"/><stop offset="0.25" stop-color="#2f9be1"/><stop offset="0.37" stop-color="#38a3ec"/><stop offset="0.53" stop-color="#3ea8f3"/><stop offset="1" stop-color="#3fa9f5"/></linearGradient><clipPath id="clip-path"><path class="cls-1" d="M1277.78,998.25c-53.34,33.37-108.66,63.23-167.07,88.45-13.71,4.57-25.13,11.42-38.84,16-102.79,38.83-207.87,59.39-319.8,38.83-54.82-11.42-98.23-32-146.2-61.68-12.29-9.23-23.55-17.4-34.47-25.95l19.51-190.58A170.25,170.25,0,0,1,697,722.55l64.3-25.72c2.42,89.8,75.18,94.87,165.48,95.19,90.3-.32,164.29-5.39,166.71-95.19l64.3,25.72A170.25,170.25,0,0,1,1264,863.31Z"/></clipPath><clipPath id="clip-path-2"><path class="cls-1" d="M1115.28,445.94a193,193,0,0,1-193,193,190.34,190.34,0,0,1-24.14-1.51c-95.21-11.88-168.88-93.08-168.88-191.52,0-106.61,86.41-193,193-193S1115.28,339.33,1115.28,445.94Z"/></clipPath><linearGradient id="linear-gradient-5" x1="216.89" y1="2354.79" x2="517.11" y2="2354.79" gradientUnits="userSpaceOnUse"><stop offset="0.01" stop-color="#1447e6"/><stop offset="1" stop-color="#3f86f5"/></linearGradient><linearGradient id="linear-gradient-6" x1="571.05" y1="2354.79" x2="625.54" y2="2354.79" xlink:href="#linear-gradient-5"/><linearGradient id="linear-gradient-7" x1="735.06" y1="2354.79" x2="957.63" y2="2354.79" xlink:href="#linear-gradient-5"/><linearGradient id="linear-gradient-8" x1="1021.38" y1="2354.79" x2="1243.96" y2="2354.79" xlink:href="#linear-gradient-5"/><linearGradient id="linear-gradient-9" x1="1307.71" y1="2354.79" x2="1530.28" y2="2354.79" xlink:href="#linear-gradient-5"/><linearGradient id="linear-gradient-10" x1="1546.09" y1="2354.79" x2="1946.56" y2="2354.79" xlink:href="#linear-gradient-5"/><linearGradient id="linear-gradient-11" x1="2000.78" y1="2354.79" x2="2401.25" y2="2354.79" xlink:href="#linear-gradient-5"/><linearGradient id="linear-gradient-12" x1="2482.71" y1="2354.79" x2="2746.42" y2="2354.79" xlink:href="#linear-gradient-5"/><linearGradient id="linear-gradient-13" x1="3665.61" y1="-1675.07" x2="4117.34" y2="-1675.07" gradientTransform="translate(-1594.92 -1549) rotate(90)" gradientUnits="userSpaceOnUse"><stop offset="0.01" stop-color="#023aa5"/><stop offset="1" stop-color="#3fa9f5"/></linearGradient><linearGradient id="linear-gradient-14" x1="609.89" y1="1558.42" x2="1859.22" y2="1558.42" xlink:href="#linear-gradient-3"/><linearGradient id="linear-gradient-15" x1="1111.6" y1="469.83" x2="2070.9" y2="469.83" xlink:href="#linear-gradient-3"/></defs><title>Asset 3</title><g id="Layer_2" data-name="Layer 2"><g id="Layer_6" data-name="Layer 6"><ellipse class="cls-2" cx="1374.55" cy="998.75" rx="1060.48" ry="998.75"/><ellipse class="cls-3" cx="1374.55" cy="998.75" rx="981.12" ry="924.01"/></g><g id="Layer_1-2" data-name="Layer 1"><path class="cls-4" d="M1374.55,1133.53c-88,65.1-179.32,122.21-279.83,165.61-13.71,4.57-25.13,11.42-38.84,16C953.09,1354,848,1374.52,736.08,1354c-54.82-11.42-98.23-32-146.2-61.67-18.27-13.71-34.26-25.13-50.25-38.84-34.27-34.26-64-70.81-85.67-115.36V959.92c21.71,44.54,51.4,81.09,85.67,115.35,16,13.71,32,25.13,50.25,38.84,48,29.69,91.38,50.25,146.2,61.68,111.93,20.55,217,0,319.8-38.84,13.71-4.57,25.13-11.42,38.84-16,100.51-43.4,191.88-100.51,279.83-165.61s179.32-124.6,279.87-167.92c13.71-4.56,25.13-11.41,38.84-16,102.83-38.76,207.92-59.24,319.84-38.59,54.81,11.46,98.2,32,146.15,61.79,18.26,13.72,34.24,25.15,50.22,38.87,34.24,34.29,63.91,70.86,85.58,115.42v178.18c-21.67-44.56-51.34-81.13-85.58-115.42-16-13.72-32-25.16-50.22-38.88-47.95-29.73-91.34-50.32-146.15-61.78-111.92-20.65-217-.17-319.84,38.58-13.71,4.56-25.13,11.4-38.84,16-100.55,43.33-191.88,102.89-279.87,167.93"/><path class="cls-5" d="M2316.83,991.9v178.17c-21.7,44.55-51.4,81.1-85.66,115.36-16,13.71-32,25.13-50.26,38.84-48,29.69-91.37,50.25-146.19,61.67-111.93,20.56-217,0-319.81-38.83-13.7-4.57-25.13-11.42-38.83-16-100.51-43.4-189.51-91.37-277.46-156.48-3.61-2.67,4.12,1.53.48-1.09l132-90.28c29.11,18,42.31,19.71,72.78,35.43q35.37,18.27,72.19,34.24c13.7,4.57,25.13,11.42,38.83,16,102.8,38.84,207.88,59.39,319.81,38.84,54.82-11.43,98.22-32,146.19-61.68,18.28-13.71,34.27-25.13,50.26-38.83,12.84-12.84,25-26,36.41-39.8C2286.56,1044.48,2303.26,1019.74,2316.83,991.9Z"/><path class="cls-6" d="M1372.74,904c-43.4,31.7-87.72,61.4-133.58,88.42-43.52-26.2-65.61-34-112.58-54.23-13.72-4.57-25.15-11.4-38.85-16C984.91,883.48,879.81,863,767.9,883.64c-54.82,11.47-98.2,32.05-146.15,61.79-18.28,13.73-34.24,25.15-50.23,38.88-7.77,7.77-15.31,15.65-22.53,23.74-24.14-26.82-45.23-55.67-61.79-89,21.52-43.43,50.71-79.27,84.32-112.91,16-13.73,32-25.15,50.23-38.88,48-29.75,91.33-50.33,146.15-61.79,111.91-20.65,217-.16,319.83,38.58,13.7,4.57,25.13,11.4,38.85,16C1223,801.57,1288.09,842.05,1372.74,904Z"/></g><g id="gear"><path class="cls-7" d="M1926.17,1164.09a192.26,192.26,0,0,0-30.45-73.81l27-27-50.07-50.08-26.91,26.91a191.71,191.71,0,0,0-73.69-30.65V971.34h-70.81v38a191.65,191.65,0,0,0-73.79,30.45l-27-27-50.07,50.08,26.91,26.91a191.55,191.55,0,0,0-30.65,73.67h-38.15l0,70.81h38.06a191.6,191.6,0,0,0,30.45,73.78l-27,27,50.07,50.08,26.91-26.91a191.77,191.77,0,0,0,73.69,30.65v38.15h70.82v-38a191.6,191.6,0,0,0,73.78-30.45l27,27,50.07-50.07-26.91-26.91a191.14,191.14,0,0,0,30.68-73.67h38.13l0-70.81ZM1736,1272.3a73.1,73.1,0,1,1,73.1-73.1A73.12,73.12,0,0,1,1736,1272.3Z"/><path class="cls-7" d="M2151.19,1378.66a105.48,105.48,0,0,0-16.72-40.51l14.81-14.8-27.48-27.49L2107,1310.63a105.34,105.34,0,0,0-40.45-16.82v-20.94h-38.87v20.87a105.43,105.43,0,0,0-40.5,16.72l-14.8-14.81-27.49,27.48,14.77,14.77a105.29,105.29,0,0,0-16.82,40.44h-20.94v38.87h20.89a105.15,105.15,0,0,0,16.71,40.49l-14.82,14.82,27.48,27.49,14.77-14.77a105.18,105.18,0,0,0,40.45,16.82V1523h38.87v-20.87a105.17,105.17,0,0,0,40.49-16.72l14.81,14.81,27.49-27.48L2134.29,1458a105,105,0,0,0,16.83-40.44h20.93v-38.87Zm-104.36,59.4a40.13,40.13,0,1,1,40.12-40.12A40.13,40.13,0,0,1,2046.83,1438.06Z"/><path class="cls-7" d="M2092.56,1011.08a66.9,66.9,0,0,0-10.6-25.72l9.39-9.4-17.44-17.44-9.37,9.38a66.86,66.86,0,0,0-25.68-10.68V943.93h-24.67v13.25a66.72,66.72,0,0,0-25.7,10.6l-9.4-9.39-17.44,17.44,9.37,9.37a66.81,66.81,0,0,0-10.68,25.67h-13.29v24.67h13.26a66.83,66.83,0,0,0,10.61,25.7l-9.41,9.41,17.45,17.44,9.37-9.37A66.81,66.81,0,0,0,2014,1089.4v13.29h24.67v-13.25a66.88,66.88,0,0,0,25.71-10.61l9.4,9.4,17.44-17.45-9.37-9.37a66.75,66.75,0,0,0,10.68-25.67h13.29v-24.66Zm-66.23,37.69a25.47,25.47,0,1,1,25.46-25.46A25.47,25.47,0,0,1,2026.33,1048.77Z"/><path class="cls-7" d="M2272.74,1170.4a85.73,85.73,0,0,0-13.59-32.92l12-12-22.34-22.34-12,12a85.44,85.44,0,0,0-32.87-13.68v-17h-31.59v17a85.5,85.5,0,0,0-32.92,13.58l-12-12-22.34,22.34,12,12a85.51,85.51,0,0,0-13.67,32.87h-17v31.59h17a85.52,85.52,0,0,0,13.58,32.91l-12,12,22.34,22.34,12-12a85.44,85.44,0,0,0,32.87,13.68v17h31.59v-17a85.5,85.5,0,0,0,32.92-13.58l12,12,22.33-22.34-12-12a85.37,85.37,0,0,0,13.68-32.87h17V1170.4Zm-84.82,48.27a32.61,32.61,0,1,1,32.61-32.61A32.61,32.61,0,0,1,2187.92,1218.67Z"/><path class="cls-8" d="M1939.87,1191.5a192.11,192.11,0,0,0-30.45-73.81l27-27-50.07-50.08-26.91,26.91a191.77,191.77,0,0,0-73.69-30.65V998.75h-70.82v38a191.6,191.6,0,0,0-73.78,30.45l-27-27-50.07,50.07,26.91,26.91a191.57,191.57,0,0,0-30.66,73.67h-38.15l0,70.81h38.06a191.45,191.45,0,0,0,30.45,73.78l-27,27,50.07,50.07,26.91-26.91a191.71,191.71,0,0,0,73.69,30.65v38.15h70.81v-38a191.65,191.65,0,0,0,73.79-30.45l27,27,50.07-50.08L1909.08,1336a191.31,191.31,0,0,0,30.68-73.66h38.12l0-70.82Zm-190.12,108.21a73.1,73.1,0,1,1,73.1-73.1A73.1,73.1,0,0,1,1749.75,1299.71Z"/><path class="cls-8" d="M2164.89,1406.08a105.33,105.33,0,0,0-16.71-40.51l14.81-14.81-27.49-27.48-14.77,14.77a105.15,105.15,0,0,0-40.44-16.83v-20.94h-38.87v20.88a105.13,105.13,0,0,0-40.5,16.71l-14.81-14.81-27.48,27.49,14.77,14.77a105.26,105.26,0,0,0-16.83,40.43h-20.93l0,38.87h20.89a105.2,105.2,0,0,0,16.71,40.5l-14.82,14.82,27.49,27.48,14.77-14.77a105.29,105.29,0,0,0,40.45,16.83v20.93H2080v-20.87a105.13,105.13,0,0,0,40.5-16.71l14.81,14.8,27.48-27.48L2148,1485.38a105,105,0,0,0,16.84-40.44h20.93v-38.86Zm-104.35,59.39a40.12,40.12,0,1,1,40.12-40.12A40.12,40.12,0,0,1,2060.54,1465.47Z"/><path class="cls-8" d="M2106.27,1038.49a66.88,66.88,0,0,0-10.61-25.71l9.4-9.4-17.44-17.45-9.38,9.38a66.75,66.75,0,0,0-25.67-10.68V971.34H2027.9v13.25a66.52,66.52,0,0,0-25.7,10.61l-9.4-9.4-17.45,17.44,9.38,9.38a66.7,66.7,0,0,0-10.68,25.66h-13.29V1063H1974a66.68,66.68,0,0,0,10.61,25.7l-9.41,9.41,17.44,17.44,9.38-9.37a66.75,66.75,0,0,0,25.67,10.68v13.29h24.67v-13.25a66.68,66.68,0,0,0,25.7-10.61l9.4,9.4,17.45-17.44-9.38-9.38a66.63,66.63,0,0,0,10.69-25.66h13.28v-24.67ZM2040,1076.18a25.47,25.47,0,1,1,25.46-25.46A25.46,25.46,0,0,1,2040,1076.18Z"/><path class="cls-8" d="M2286.44,1197.81a85.72,85.72,0,0,0-13.58-32.92l12-12-22.34-22.34-12,12a85.42,85.42,0,0,0-32.88-13.68v-17h-31.59v17a85.38,85.38,0,0,0-32.91,13.59l-12-12-22.34,22.34,12,12a85.37,85.37,0,0,0-13.68,32.87h-17v31.59h17a85.49,85.49,0,0,0,13.59,32.92l-12,12,22.34,22.34,12-12a85.48,85.48,0,0,0,32.88,13.68v17h31.59v-17a85.56,85.56,0,0,0,32.92-13.58l12,12,22.34-22.34-12-12a85.24,85.24,0,0,0,13.69-32.87h17v-31.59Zm-84.82,48.28a32.61,32.61,0,1,1,32.61-32.61A32.62,32.62,0,0,1,2201.62,1246.09Z"/></g><g id="Layer_3_copy" data-name="Layer 3 copy"><path class="cls-1" d="M1277.78,998.25c-53.34,33.37-108.66,63.23-167.07,88.45-13.71,4.57-25.13,11.42-38.84,16-102.79,38.83-207.87,59.39-319.8,38.83-54.82-11.42-98.23-32-146.2-61.68-12.29-9.23-23.55-17.4-34.47-25.95l19.51-190.58A170.25,170.25,0,0,1,697,722.55l64.3-25.72c2.42,89.8,75.18,94.87,165.48,95.19,90.3-.32,164.29-5.39,166.71-95.19l64.3,25.72A170.25,170.25,0,0,1,1264,863.31Z"/><g class="cls-9"><path class="cls-8" d="M650.69,1252.6a205.11,205.11,0,0,1-14.22-50.29c-16.53-114,1.63-244.61,18-357.74,4.9-33.92,11.2-69,30.91-97,43.84-62.4,134.94-74.43,195.29-116,70.71-48.68,161.92-72.47,249.71-64.64,105.29,9.41,212.78,60.3,262.7,153.49,51.54,96.21,32.45,214,4.2,319.39-30.68,114.54-78.12,236-180.82,295.32-70.61,40.74-156.35,44.94-237.69,39.36-63.21-4.33-126.29-14.55-189.76-14.35C726.64,1360.34,675.44,1311.09,650.69,1252.6Z"/></g><path class="cls-1" d="M1115.28,445.94a193,193,0,0,1-193,193,190.34,190.34,0,0,1-24.14-1.51c-95.21-11.88-168.88-93.08-168.88-191.52,0-106.61,86.41-193,193-193S1115.28,339.33,1115.28,445.94Z"/><g class="cls-10"><circle class="cls-8" cx="950.81" cy="403.68" r="201.02"/></g><path class="cls-1" d="M922.44,607.5a158.32,158.32,0,0,1-38.86,4.84A156.61,156.61,0,0,1,863.15,611c1.78,10,.39,22,.24,31.29-.1,5.42-.51,11-3.1,15.73-4,7.32-12.38,10.65-20.09,13.44l-31.38,11.37c-4.78,1.75-10,3.83-12.41,8.45-5.76,10.93,9.18,32.61,16.46,40.52,8.72,9.46,20.12,15.62,32,19.67,24.58,8.39,51.42,8.63,77,8.55h.18C925.77,708.42,925.38,657.84,922.44,607.5Z"/><path class="cls-1" d="M921.72,607.5A158.48,158.48,0,0,0,981,611c-1.78,10-.39,22-.23,31.29.09,5.42.5,11,3.09,15.73,4.06,7.32,12.38,10.65,20.09,13.44l31.38,11.37c4.78,1.75,10,3.83,12.41,8.45,5.76,10.93-9.18,32.61-16.46,40.52-8.72,9.46-20.12,15.62-32,19.67-24.58,8.39-51.42,8.63-77,8.55h-.18C918.38,708.42,918.77,657.84,921.72,607.5Z"/></g><g id="Layer_5_copy_3" data-name="Layer 5 copy 3"><path class="cls-11" d="M517.11,2565.79H442.46L283.91,2374q-8.18-10.06-11.17-15.8h-1.36v207.6H216.89v-422h54.49v198.6h1.36a169.66,169.66,0,0,1,11.17-15.53L437,2143.79H504.3L327.22,2346.2Z"/><path class="cls-12" d="M625.54,2143.79v422H571.05v-422Z"/><path class="cls-13" d="M957.63,2565.79H735.06v-422h54.48v373.78H957.63Z"/><path class="cls-14" d="M1244,2565.79H1021.38v-422h54.49v373.78H1244Z"/><path class="cls-15" d="M1530.28,2565.79H1307.71v-422h54.48v373.78h168.09Z"/><path class="cls-16" d="M1546.09,2359.83q0-102.16,55.3-162.64t149.84-60.48q88,0,141.66,59.11t53.67,153.93q0,102.7-55,162.91t-147.11,60.21q-89.91,0-144.12-59.12T1546.09,2359.83Zm57.21-4.36q0,76.56,39.09,122.73t102,46.18q67.56,0,106.11-44.28t38.55-123.81q0-81.73-37.73-126.14T1748,2185.74q-64.56,0-104.61,46.86T1603.3,2355.47Z"/><path class="cls-17" d="M2000.78,2359.83q0-102.16,55.3-162.64t149.84-60.48q88,0,141.66,59.11t53.67,153.93q0,102.7-55,162.91t-147.11,60.21q-89.91,0-144.12-59.12T2000.78,2359.83Zm57.21-4.36q0,76.56,39.09,122.73t102,46.18q67.56,0,106.11-44.28t38.55-123.81q0-81.73-37.73-126.14t-103.39-44.41q-64.56,0-104.61,46.86T2058,2355.47Z"/><path class="cls-18" d="M2537.2,2408.05v157.74h-54.49v-422h119.87q68.37,0,106.11,33t37.73,94.26q0,62.11-44.13,100.67T2592,2408.05Zm0-216.31V2360.1h50.4q49.84,0,75.73-22.48t25.88-64.43q0-81.45-96.44-81.45Z"/><path class="cls-19" d="M58.33,2342.48c-15.76-21.29-29.59-43.42-40.09-67.75-1.11-3.32-2.77-6.08-3.87-9.4C5,2240.44,0,2215,5,2187.9c2.77-13.27,7.75-23.78,14.94-35.39,3.31-4.43,6.08-8.3,9.4-12.17,8.29-8.29,17.14-15.48,27.93-20.74h43.13c-10.78,5.26-19.63,12.45-27.93,20.74-3.31,3.87-6.08,7.74-9.4,12.17-7.19,11.61-12.16,22.12-14.93,35.39-5,27.1,0,52.54,9.4,77.43,1.11,3.32,2.77,6.08,3.87,9.4,10.51,24.33,24.34,46.46,40.1,67.75s30.16,43.41,40.65,67.76c1.11,3.31,2.76,6.08,3.87,9.4,9.38,24.89,14.34,50.34,9.34,77.43-2.78,13.27-7.76,23.78-15,35.39-3.32,4.42-6.09,8.29-9.41,12.16-8.3,8.29-17.16,15.47-27.95,20.71H59.88c10.79-5.24,19.64-12.42,27.94-20.71,3.32-3.87,6.09-7.74,9.41-12.16,7.2-11.61,12.19-22.12,15-35.39,5-27.09,0-52.54-9.34-77.43-1.1-3.32-2.76-6.09-3.86-9.4-10.49-24.35-24.91-46.46-40.66-67.76"/></g><g id="Layer_10" data-name="Layer 10"><path class="cls-20" d="M1201.57,1809.8c205.28,35,426-.7,597.75-118.49,21.51-14.75,43-31.68,53.86-55.4s7.56-55.83-13.9-70.66c-28.47-19.68-66.14.12-99.88,7.82-92.77,21.18-177.38-55.5-236.86-129.77-24.06-30-52-48.53-78.2-75-31.14-31.46-55.64-67.16-103.4-73.24-52.33-6.66-99.52,28.56-142.73,58.85-79.94,56-173.94,93.08-272,97.85-44,2.13-88.45-1.91-131-13.29-38.31-10.24-81-34.86-120.52-35.37-20.37-.26-42.93,12.67-44.7,33-1.06,12.09,5.31,23.49,11.86,33.71,30.75,48,72.59,85.18,109.55,127.9,34.51,39.89,104.4,90.57,153.14,112.65C999.65,1762.45,1077.48,1785,1201.57,1809.8Z"/><path class="cls-21" d="M1224.28,627.18a134.61,134.61,0,0,1-4.44-17.63c-9.84-55.33,26-98.95,6.55-164.95-11-37.24-24.34-76.61-44.58-109.91-14-23-61-55.77-67.86-77.59-27.58-88.12,195.66-98.2,244.22-100.41a759.89,759.89,0,0,1,296.66,45.8c145.68,53.8,314.81,118.08,395.84,260.43,26.19,46,29.75,109.3-6.06,148.27-28.55,31.08-74.5,39.57-116.65,37.45-96.54-4.86-178.16-21.07-271.27,17.68-64,26.66-113,77.76-175.47,107.07C1391.62,815.47,1254.85,721.8,1224.28,627.18Z"/></g></g></svg>